<svg xmlns="http://www.w3.org/2000/svg" xmlns:xlink="http://www.w3.org/1999/xlink" version="1.1" style="" xml:space="preserve" width="24" height="24"><rect id="backgroundrect" width="100%" height="100%" x="0" y="0" fill="none" stroke="none" class="" style=""/>
















<g class="currentLayer" style=""><title>Layer 1</title><g id="svg_1" class="">
	<g id="svg_2">
		<path d="M22.90163933442996,2.1128986582988727 c-0.09851827365613662,-0.09598224479675059 -0.2440605400608817,-0.12568387092955546 -0.37215148922985514,-0.07582296454163372 L1.2242234304208688,10.311364158212962 c-0.12662950880932672,0.04917316974808926 -0.21349924312828525,0.1669050857795712 -0.22317053962594172,0.30234622028676356 c-0.009671296497657376,0.1354411345071932 0.05957518642556954,0.2643057873959787 0.17786588847691603,0.3309732579198305 l4.415226244190504,2.487672376897414 l1.5324061841688064,7.490268695045637 c0.009542345877688638,0.05295572126717262 0.03107709941247227,0.10225784163523044 0.061982264664986284,0.1445966285249747 c0.0030948148792503665,0.004255370458969236 0.005630843738636062,0.007522119498177954 0.008209856138011404,0.010788868537386665 c0.053987326226922976,0.06752714132364336 0.13054101094837928,0.11468008469222171 0.21977483996676453,0.1289506199687643 c0.011390638097240889,0.0018053086795627108 0.02282425973447133,0.0030948148792503665 0.0341719142917228,0.0037825515190837776 c0.00735018533821958,0.00047281893988547247 0.014657387136449578,0.0006877366398334094 0.021964588934679667,0.0006877366398334094 c0.06701133884376805,0 0.1304980274083894,-0.0191276752953668 0.18461430425528128,-0.05278378710721431 c0.018310988035564565,-0.011347654557251287 0.035719321731347974,-0.024457634254075804 0.05188113276743291,-0.03932993909047331 c0.005029074178781831,-0.004642222318875539 0.009413395257719838,-0.00881162569786561 0.013668765716689105,-0.013152963236814018 l3.323616262614923,-3.3320840199928714 c0.13694555840682812,-0.1373324102667342 0.1366876571668904,-0.35972924617286445 -0.0006447530998438242,-0.4966748045796925 c-0.13746136088670344,-0.137031525486807 -0.3596862626328746,-0.1366876571668904 -0.4966748045796925,0.0006447530998438242 l-2.6107772354275935,2.61743968412598 l0.5641159788233563,-4.831091993589769 l7.973231750368652,4.376326140499926 c0.08029325270055129,0.043843210789380326 0.169527081718936,0.05325660604709991 0.25128177477913266,0.03352716119187889 c0.008983559857823972,-0.002192160539469004 0.01719341599583535,-0.004513271698906769 0.025317305053867572,-0.007135267638271658 c0.08072308810044672,-0.026176975853659277 0.15155996200328814,-0.08068010456045711 0.19660671191237716,-0.15891014734150777 c0.002278127619448183,-0.004040452759021302 0.004298353998958824,-0.0076940536581362965 0.0062755968384799,-0.011347654557251287 c0.00911251047779274,-0.017365350155793796 0.016419712276022694,-0.03438683199167055 0.022222490174617197,-0.0516662150674851 L22.987133595469256,2.4829439540692295 C23.03351283511802,2.353477531620591 23.0001576080861,2.2087949360156447 22.90163933442996,2.1128986582988727 zM2.1706779974516106,10.697270380239482 L19.584685520513432,3.934197214737689 l-13.691160141023603,8.860626933453698 L2.1706779974516106,10.697270380239482 zM7.994431863560928,14.231548972343376 c-0.03283942455204552,0.026348910013617603 -0.0614234786451216,0.0590593839456944 -0.08377491943970743,0.0974436851563966 c-0.0029228807192919998,0.005029074178781831 -0.00567382727862564,0.010101131897553227 -0.008338806757980164,0.015216173156314268 c-0.021319835834835838,0.04122121485001525 -0.03369909535183723,0.08476354085946804 -0.03778253165084807,0.12834885040891023 L7.37740314701039,18.644411121834448 l-1.0791877385185893,-5.2748540604422764 l11.824986768835645,-7.652875426826251 L7.994431863560928,14.231548972343376 zM16.453033747492007,18.62700278813867 l-7.620293903514142,-4.182599325766852 L21.887055856515726,3.470103933470117 L16.453033747492007,18.62700278813867 z" fill="#747f8d" id="svg_3"/>
	</g>
</g><g id="svg_4">
</g><g id="svg_5">
</g><g id="svg_6">
</g><g id="svg_7">
</g><g id="svg_8">
</g><g id="svg_9">
</g><g id="svg_10">
</g><g id="svg_11">
</g><g id="svg_12">
</g><g id="svg_13">
</g><g id="svg_14">
</g><g id="svg_15">
</g><g id="svg_16">
</g><g id="svg_17">
</g><g id="svg_18">
</g></g></svg>